<svg xmlns="http://www.w3.org/2000/svg" width="128" height="128" viewBox="0 0 128 128"><path d="M114.67 99.246c-.267-.45-.7-.885-1.163-1.117-.864-.437-1.422-1.143-1.9-1.897-1.206-1.914-2.364-3.86-3.483-5.828-.267-.47-.427-1.067-.435-1.606-.04-2.264-.098-4.524.37-6.77.175-.847.43-1.4 1.322-1.73 1.835-.677 3.347-1.855 4.67-3.3.562-.614.87-1.26.984-2.09.4-2.92 1.03-5.83 2.192-8.51 1.23-2.846 1.282-5.724 1.08-8.655-.157-2.25-.47-4.506-.938-6.71-.704-3.314-1.446-6.634-2.453-9.866-1.788-5.737-3.98-11.313-7.397-16.33-3.03-4.44-6.416-8.493-11.272-11.073-.586-.313-1.085-.804-1.595-1.248-.626-.54-1.34-.8-2.155-.906-3.565-.45-7.054-.232-10.128 1.786-1.312.86-2.248.69-3.33-.145-.36-.277-.756-.504-1.148-.73-3.496-2.015-7.163-3.385-11.3-2.97-.447.046-.906.007-1.358.007l-.013-.13c-3.266.28-6.53.594-9.802.823-3.19.224-6.283.902-9.19 2.197-11.785 5.24-20.03 13.795-24.074 26.155-.875 2.673-1.753 5.367-1.77 8.26-.033 5.317-.005 10.627-.356 15.95-.424 6.433-.213 12.91-.26 19.366-.02 2.266-.003 4.523.654 6.735.32 1.077.508 2.208.627 3.328.224 2.076.275 2.3-1.54 3.277-1.394.75-2.743 1.583-4.092 2.417-.77.475-1.505 1.007-2.23 1.547-1.342.997-1.678 2.4-1.338 3.936.14.62.612 1.18.97 1.74.238.366.602.614.464 1.17-.352 1.415.448 2.35 1.43 3.2 1.54 1.333 3.037 2.716 4.6 4.02.594.494 1.284.918 1.996 1.213.71.293.963.728 1.186 1.448.552 1.784 1.666 2.368 3.326 1.885 1.41-.414 2.8-.9 4.192-1.375 5.896-2.008 11.877-3.66 18.07-4.51 3.69-.51 7.355-1.216 11.042-1.77 3.354-.5 6.71-1.044 10.083-1.34 4.055-.352 8.132-.573 12.203-.64 8.043-.135 16.088-.088 24.132-.196 2.515-.033 4.95.35 7.376.91.656.154 1.313.38 1.978.41 1.533.07 2.894-1.135 2.935-2.673.023-.88-.036-1.862-.398-2.64-.803-1.733-1.792-3.384-2.77-5.032zm-34.03-75.92c2.587-1.89 5.504-3.04 8.66-3.72 1.815-.393 3.353-.094 4.85.83 2.93 1.808 5.35 4.16 7.32 6.984 2.216 3.18 3.934 6.62 5.333 10.208 2.14 5.493 3.664 11.173 4.64 16.98.317 1.89.096 3.87.43 5.753.68 3.853-.435 7.394-1.54 10.96-.215.7-.58 1.286-1.28 1.465-3.487.89-6.83 2.482-10.43 2.224-.922 0-1.716.026-2.506-.014-.484-.02-.82-.282-.875-.827-.053-.56-.05-1.155-.256-1.66-.205-.5-.587-.96-.98-1.346-.598-.576-1.66-.334-2.004.412-.38.818-.685 1.675-1.105 2.468-.482.907-1.835 1.038-2.627.282-.133-.126-.248-.427-.19-.576.213-.52.55-.993.747-1.52.198-.518.373-1.076.392-1.623.025-.715-.32-1.306-1.005-1.632-.572-.272-1.138-.165-1.582.222-.94.817-1.832 1.68-2.728 2.542-.325.307-.557.734-.917.982-.204.14-.583.05-.874.003-.043-.008-.114-.413-.032-.54.5-.75 1.067-1.46 1.568-2.213.306-.466.59-.964.78-1.486.273-.747-.08-1.696-.72-2.097-.64-.406-1.31-.364-1.922.026-1.722 1.107-3.275 2.42-4.546 4.045-.205.264-.413.603-.693.71-.256.1-.655.005-.917-.14-.275-.145-.535-.414-.262-.82.443-.657.876-1.322 1.27-2.01.335-.586.646-1.194.91-1.82.366-.863.195-1.757-.355-2.186-.565-.435-1.54-.384-2.19.197-.673.605-1.297 1.27-1.928 1.92-.71.73-1.397 1.485-2.112 2.207-.498.504-1.024.78-1.81.5-4.15-1.482-8.322-2.905-12.483-4.364-.315-.11-.625-.277-.888-.484-2.323-1.83-4.437-3.873-6.13-6.314-.833-1.2-.812-2.57-.58-3.92.07-.403.426-.785.722-1.11 4.27-4.69 8.538-9.378 12.834-14.04 3.23-3.504 6.762-6.686 10.508-9.63 2.492-1.958 4.945-3.968 7.503-5.838zM35.213 99.423c-.103 2.697-.2 5.392-.312 8.088-.033.82-.29 1.174-1.18 1.398-2.86.718-5.536 1.885-8.152 3.22-.83.422-1.137.346-1.5-.632-.758-2.034-2.442-3.194-4.022-4.445-.79-.625-1.722-1.066-2.57-1.62-.58-.38-.63-1.286-.047-1.736.977-.757 1.983-1.483 3.03-2.14 1.523-.96 2.995-2.172 4.67-2.67 1.557-.466 3.352-.1 5.04-.172 1.35-.06 2.692-.213 4.035-.348.924-.092 1.26.186 1.007 1.056zm8.898-.736c-.595 2.085-.526 4.216-.566 6.347-.025 1.237-.348 1.59-1.515 1.813-.22.043-.446.066-.668.093-1.26.147-1.642-.176-1.665-1.41-.003-.225 0-.45 0-.862.176-1.71.352-3.608.576-5.5.13-1.087.66-1.532 1.806-1.573.442-.016.897.027 1.332.12.49.108.834.505.7.975zm5.55-.18c-.72 2.05-.694 4.177-.708 6.305 0 .117-.266.352-.353.328-.195-.052-.478-.212-.505-.37-.17-.98-.277-1.972-.387-2.812.117-1.163.164-2.17.34-3.155.073-.395.403-.768.684-1.094.096-.114.398-.08.6-.063.085.007.194.14.224.235.064.203.17.45.107.626zm-3.653-7.214c-4.317-.046-8.587.317-12.818 1.17-.415.086-.955.036-.743-.66.18-.595.117-1.12-.312-1.568-.313-.325-.73-.567-.986-.928-.878-1.22-.65-2.592.524-3.5.717-.554 1.446-1.087 2.144-1.665.34-.286.686-.608.92-.98.355-.57.698-1.17.315-1.896-.354-.674-.923-.966-1.64-1.024-.336-.026-.684.045-1.015-.005-.868-.132-1.773.995-2.48.192-.447-.507-.355-1.475-.534-2.23-.128-.55-.363-1.083-.43-1.637-.03-.267.157-.757.352-.82 2.656-.884 4.43-3.116 6.802-4.425.466-.26.825-.772 1.134-1.234.548-.817.03-2.272-.924-2.55-1.46-.426-2.923-.432-4.245.445-.846.56-1.618 1.237-2.46 1.81-.212.145-.694.223-.815.097-.203-.203-.26-.593-.294-.913-.07-.736.27-1.3.827-1.76 1.84-1.515 3.764-2.9 5.893-3.99.6-.308 1.194-.65 1.732-1.053.472-.355.663-.897.57-1.506-.1-.667-.648-1.222-1.333-1.367-1.404-.3-2.71-.023-3.914.708-.965.59-1.877 1.26-2.834 1.86-.14.086-.518.044-.567-.05-.14-.273-.306-.66-.207-.9.165-.387.466-.79.82-1.015 1.437-.898 2.91-1.735 4.374-2.587.78-.453 1.63-.81 2.342-1.35 1.135-.852.86-2.442-.42-3.013-1.216-.544-2.42-.47-3.637-.064-.854.286-1.69.635-2.55.907-.156.048-.444-.1-.565-.245-.125-.145-.2-.416-.16-.605.162-.81.567-1.472 1.305-1.895 1.373-.79 2.737-1.595 4.122-2.364.79-.437 1.638-.78 2.41-1.248.473-.288.908-.687 1.26-1.116.747-.907.328-2.357-.742-2.853-.76-.352-1.52-.44-2.302-.14-.74.284-1.467.598-2.197.905-.823.343-1.643.693-2.464 1.043-.774-.892-.33-1.94-.363-2.923-.02-.563.015-1.148.15-1.69 1.243-4.956 2.8-9.804 5.555-14.153 1.408-2.227 3.317-4 5.732-5.173 1.12-.542 2.263-1.05 3.327-1.688 3.26-1.95 6.825-3.076 10.525-3.638 3.248-.494 6.555-.402 9.827 0 1.006.125 2.04.254 2.995.565 1.9.624 3.826.552 5.717.226 1.167-.2 1.954.232 2.784.832.392.285.506.846.192 1.167-.633.643-1.263 1.298-1.956 1.87-2.965 2.454-6.055 4.77-8.917 7.34-4.3 3.862-8.342 7.99-12.03 12.46-1.8 2.184-3.743 4.245-5.607 6.38-.67.765-1.224 1.644-1.952 2.348-2.517 2.44-2.763 5.558-2.77 8.775-.004 1.457.49 2.727 1.627 3.58 1.12.838 1.973 1.845 2.683 3.014 1.38 2.267 3.307 4.017 5.395 5.587 3.187 2.396 6.676 4.248 10.407 5.662 6.698 2.532 13.63 4.165 20.7 5.12 4.592.62 9.233.9 13.89.72 3.595-.14 3.438-.418 3.303 3.134-.053 1.43.384 2.926-.432 4.284-1.34.048-2.68.127-4.02.138-2.72.023-5.44.007-8.158.007v-.085c-3.4 0-6.798-.047-10.195.016-2.135.04-4.272.053-6.4.082-2.784.035-5.534 1-8.382.693-2.397.922-4.913.62-7.392.74-1.465.07-2.924.29-4.39.376-2.032.117-4.07.273-6.106.25zm60.618 10.765c-1.584.027-3.172.025-4.757.027-1.813.003-3.627.002-5.44.002v-.005c-3.06 0-6.12.005-9.18-.002-1.665-.005-1.63-.027-2.23-1.69-.224-.618-.56-1.24-.992-1.727-.8-.893-2.42-.496-2.757.663-.187.64-.18 1.336-.287 2.004-.082.512-.454.79-.932.808-1.015.037-2.036.048-3.05-.003-.49-.026-.775-.398-.81-.904-.045-.675.017-1.375-.147-2.02-.132-.52-.466-1.027-.823-1.44-.607-.7-1.88-.486-2.334.3-.523.913-.65 1.91-.796 2.927-.2 1.393-.504 1.61-2.018 1.734-.112.01-.226.015-.337.02-1.156.06-1.4-.126-1.583-1.21-.096-.552-.153-1.115-.294-1.653-.136-.512-.896-1.07-1.288-.907-.384.162-.808.454-1.008.805-.606 1.06-.08 2.784-1.284 3.34-1.282.59-2.848.566-4.29.8-.382.06-.833-.393-.844-.867-.02-.904.085-1.824-.047-2.712-.096-.63-.422-1.27-.785-1.812-.414-.62-1.763-.557-2.085.098-.395.8-.72 1.658-.907 2.525-.17.764-.093 1.58-.15 2.37-.07.953-.568 1.37-1.573 1.314-.475-.03-.958-.23-.912-.772.176-2.026.398-4.047.666-6.064.034-.245.427-.587.695-.632 1.447-.243 2.904-.49 4.366-.58 5.425-.323 10.884-.317 16.273-.932 7.582-.866 15.16-.313 22.735-.52 1.877-.053 3.886.565 5.547-.928.053-.047.555.237.688.462.877 1.453 1.7 2.942 2.56 4.405.34.582.75 1.13 1.112 1.704.363.58.064 1.06-.698 1.073zm-45.44-54.764c-1.756.533-3.275 1.525-4.465 2.942-.59.704-1.014 1.538-.868 2.493.218 1.444.443 2.9.796 4.314.338 1.355 1.573 2.24 2.987 2.338 3.784.27 6.45-2.283 6.588-6.176-.254-1.205-.51-2.41-.768-3.616-.392-1.838-2.458-2.847-4.27-2.296zm.578 5.973c-.096.162-.31.333-.487.353-.15.018-.382-.146-.47-.293-.106-.173-.124-.416-.127-.627-.01-.562.39-1.013.717-.804.235.148.37.447.498.607-.05.34-.03.587-.13.76zm19.614-22.123c1.225-.573 2.424-1.205 3.605-1.862.69-.382 1.302-.9 1.99-1.282.675-.375 1.708-.18 2.188.39.433.516.79 1.1 1.18 1.653.524.736 1.018 1.495 1.578 2.2.84 1.057 1.98 1.44 3.307 1.363 1.112-.065 1.835-1.09 1.47-2.156-.11-.317-.224-.65-.42-.914-1.288-1.715-2.58-3.43-3.916-5.11-.985-1.236-2.3-1.79-3.967-1.613-1.712-.166-3.23.258-4.475 1.7-.804.928-1.877 1.625-2.812 2.44-.424.37-.836.754-1.213 1.17-.357.395-.356 1.163-.014 1.574.394.47.94.713 1.5.45zM25.444 100.36c-1.433 1.216-2.338 2.752-2.208 4.683.13 1.888 1.224 2.995 3.076 2.613.548-.116 1.11-.195 1.633-.38 1.22-.423 1.97-1.54 1.977-3.327-.17-.614-.347-1.738-.78-2.753-.586-1.375-2.573-1.793-3.698-.836z"/></svg>